<?xml version="1.0" encoding="UTF-8" standalone="no"?>
<!DOCTYPE svg PUBLIC "-//W3C//DTD SVG 1.1//EN"
 "http://www.w3.org/Graphics/SVG/1.1/DTD/svg11.dtd">
<!-- Generated by graphviz version 2.47.1 (20210417.1919)
 -->
<!-- Title: teste outra bez Pages: 1 -->
<svg width="437pt" height="187pt"
 viewBox="0.00 0.00 437.00 187.00" xmlns="http://www.w3.org/2000/svg" xmlns:xlink="http://www.w3.org/1999/xlink">
<g id="graph0" class="graph" transform="scale(1 1) rotate(0) translate(4 183)">
<title>teste outra bez</title>
<polygon fill="white" stroke="transparent" points="-4,4 -4,-183 433,-183 433,4 -4,4"/>
<!-- Start -->
<g id="node1" class="node">
<title>Start</title>
</g>
<!-- A -->
<g id="node5" class="node">
<title>A</title>
<ellipse fill="none" stroke="black" cx="109" cy="-18" rx="18" ry="18"/>
<text text-anchor="middle" x="109" y="-14.3" font-family="Times New Roman,serif" font-size="14.00">A</text>
</g>
<!-- Start&#45;&gt;A -->
<g id="edge1" class="edge">
<title>Start&#45;&gt;A</title>
<path fill="none" stroke="black" d="M54.19,-18C62.65,-18 72.05,-18 80.6,-18"/>
<polygon fill="black" stroke="black" points="90.83,-18 80.83,-22.5 85.83,-18 80.83,-18 80.83,-18 80.83,-18 85.83,-18 80.83,-13.5 90.83,-18 90.83,-18"/>
</g>
<!-- C -->
<g id="node2" class="node">
<title>C</title>
<ellipse fill="none" stroke="black" cx="307" cy="-110" rx="18" ry="18"/>
<text text-anchor="middle" x="307" y="-106.3" font-family="Times New Roman,serif" font-size="14.00">C</text>
</g>
<!-- T -->
<g id="node4" class="node">
<title>T</title>
<ellipse fill="none" stroke="black" cx="407" cy="-64" rx="18" ry="18"/>
<text text-anchor="middle" x="407" y="-60.3" font-family="Times New Roman,serif" font-size="14.00">T</text>
</g>
<!-- C&#45;&gt;T -->
<g id="edge7" class="edge">
<title>C&#45;&gt;T</title>
<path fill="none" stroke="black" d="M325,-108.46C337.19,-106.84 353.75,-103.56 367,-97 374,-93.54 380.79,-88.56 386.69,-83.51"/>
<polygon fill="black" stroke="black" points="394.13,-76.72 389.78,-86.79 390.44,-80.09 386.74,-83.46 386.74,-83.46 386.74,-83.46 390.44,-80.09 383.71,-80.14 394.13,-76.72 394.13,-76.72"/>
<text text-anchor="middle" x="355" y="-108.8" font-family="Times New Roman,serif" font-size="14.00">11R</text>
</g>
<!-- C&#45;&gt;T -->
<g id="edge8" class="edge">
<title>C&#45;&gt;T</title>
<path fill="none" stroke="black" d="M319.41,-96.69C325.72,-90.12 334.09,-82.64 343,-78 354.03,-72.26 367.35,-68.87 378.89,-66.86"/>
<polygon fill="black" stroke="black" points="388.87,-65.39 379.63,-71.3 383.92,-66.12 378.98,-66.85 378.98,-66.85 378.98,-66.85 383.92,-66.12 378.32,-62.4 388.87,-65.39 388.87,-65.39"/>
<text text-anchor="middle" x="355" y="-81.8" font-family="Times New Roman,serif" font-size="14.00">00R</text>
</g>
<!-- D -->
<g id="node6" class="node">
<title>D</title>
<ellipse fill="none" stroke="black" cx="407" cy="-157" rx="18" ry="18"/>
<ellipse fill="none" stroke="black" cx="407" cy="-157" rx="22" ry="22"/>
<text text-anchor="middle" x="407" y="-153.3" font-family="Times New Roman,serif" font-size="14.00">D</text>
</g>
<!-- C&#45;&gt;D -->
<g id="edge9" class="edge">
<title>C&#45;&gt;D</title>
<path fill="none" stroke="black" d="M323.75,-117.55C338.26,-124.51 360.15,-135.01 377.7,-143.43"/>
<polygon fill="black" stroke="black" points="386.93,-147.86 375.97,-147.59 382.42,-145.69 377.92,-143.53 377.92,-143.53 377.92,-143.53 382.42,-145.69 379.86,-139.47 386.93,-147.86 386.93,-147.86"/>
<text text-anchor="middle" x="355" y="-140.8" font-family="Times New Roman,serif" font-size="14.00">$$R</text>
</g>
<!-- B -->
<g id="node3" class="node">
<title>B</title>
<ellipse fill="none" stroke="black" cx="208" cy="-48" rx="18" ry="18"/>
<text text-anchor="middle" x="208" y="-44.3" font-family="Times New Roman,serif" font-size="14.00">B</text>
</g>
<!-- B&#45;&gt;C -->
<g id="edge6" class="edge">
<title>B&#45;&gt;C</title>
<path fill="none" stroke="black" d="M223.73,-57.42C239.42,-67.44 264.46,-83.45 282.8,-95.17"/>
<polygon fill="black" stroke="black" points="291.45,-100.7 280.6,-99.1 287.23,-98.01 283.02,-95.31 283.02,-95.31 283.02,-95.31 287.23,-98.01 285.44,-91.52 291.45,-100.7 291.45,-100.7"/>
<text text-anchor="middle" x="257.5" y="-90.8" font-family="Times New Roman,serif" font-size="14.00">0XR</text>
</g>
<!-- B&#45;&gt;B -->
<g id="edge4" class="edge">
<title>B&#45;&gt;B</title>
<path fill="none" stroke="black" d="M199.64,-64.29C197.62,-74.39 200.41,-84 208,-84 212.86,-84 215.76,-80.06 216.68,-74.57"/>
<polygon fill="black" stroke="black" points="216.36,-64.29 221.17,-74.15 216.52,-69.29 216.67,-74.29 216.67,-74.29 216.67,-74.29 216.52,-69.29 212.17,-74.42 216.36,-64.29 216.36,-64.29"/>
<text text-anchor="middle" x="208" y="-87.8" font-family="Times New Roman,serif" font-size="14.00">1YR</text>
</g>
<!-- B&#45;&gt;T -->
<g id="edge5" class="edge">
<title>B&#45;&gt;T</title>
<path fill="none" stroke="black" d="M226.14,-49.39C260.42,-52.18 337.7,-58.45 378.91,-61.8"/>
<polygon fill="black" stroke="black" points="389.04,-62.62 378.71,-66.3 384.06,-62.22 379.07,-61.81 379.07,-61.81 379.07,-61.81 384.06,-62.22 379.44,-57.33 389.04,-62.62 389.04,-62.62"/>
<text text-anchor="middle" x="307" y="-61.8" font-family="Times New Roman,serif" font-size="14.00">$$R</text>
</g>
<!-- A&#45;&gt;B -->
<g id="edge3" class="edge">
<title>A&#45;&gt;B</title>
<path fill="none" stroke="black" d="M126.45,-23.09C141.23,-27.66 163.18,-34.45 180.43,-39.78"/>
<polygon fill="black" stroke="black" points="190.46,-42.89 179.58,-44.23 185.69,-41.41 180.91,-39.93 180.91,-39.93 180.91,-39.93 185.69,-41.41 182.24,-35.63 190.46,-42.89 190.46,-42.89"/>
<text text-anchor="middle" x="158.5" y="-40.8" font-family="Times New Roman,serif" font-size="14.00">0XR</text>
</g>
<!-- A&#45;&gt;T -->
<g id="edge2" class="edge">
<title>A&#45;&gt;T</title>
<path fill="none" stroke="black" d="M126.99,-17.34C149.67,-16.7 191.04,-16.42 226,-21 281.43,-28.26 344.67,-45.51 379.49,-55.82"/>
<polygon fill="black" stroke="black" points="389.34,-58.78 378.47,-60.22 384.55,-57.35 379.77,-55.91 379.77,-55.91 379.77,-55.91 384.55,-57.35 381.06,-51.6 389.34,-58.78 389.34,-58.78"/>
<text text-anchor="middle" x="257.5" y="-32.8" font-family="Times New Roman,serif" font-size="14.00">11R</text>
</g>
</g>
</svg>
