<?xml version="1.0" encoding="UTF-8" standalone="no"?>
<!DOCTYPE svg PUBLIC "-//W3C//DTD SVG 1.1//EN"
 "http://www.w3.org/Graphics/SVG/1.1/DTD/svg11.dtd">
<!-- Generated by graphviz version 2.47.1 (20210417.1919)
 -->
<!-- Title: teste outra bez Pages: 1 -->
<svg width="437pt" height="187pt"
 viewBox="0.00 0.00 437.00 187.00" xmlns="http://www.w3.org/2000/svg" xmlns:xlink="http://www.w3.org/1999/xlink">
<g id="graph0" class="graph" transform="scale(1 1) rotate(0) translate(4 183)">
<title>teste outra bez</title>
<polygon fill="white" stroke="transparent" points="-4,4 -4,-183 433,-183 433,4 -4,4"/>
<!-- Start -->
<g id="node1" class="node">
<title>Start</title>
</g>
<!-- A -->
<g id="node3" class="node">
<title>A</title>
<ellipse fill="none" stroke="black" cx="109" cy="-18" rx="18" ry="18"/>
<text text-anchor="middle" x="109" y="-14.3" font-family="Times New Roman,serif" font-size="14.00">A</text>
</g>
<!-- Start&#45;&gt;A -->
<g id="edge1" class="edge">
<title>Start&#45;&gt;A</title>
<path fill="none" stroke="black" d="M54.19,-18C62.65,-18 72.05,-18 80.6,-18"/>
<polygon fill="black" stroke="black" points="90.83,-18 80.83,-22.5 85.83,-18 80.83,-18 80.83,-18 80.83,-18 85.83,-18 80.83,-13.5 90.83,-18 90.83,-18"/>
</g>
<!-- B -->
<g id="node2" class="node">
<title>B</title>
<ellipse fill="none" stroke="black" cx="208" cy="-48" rx="18" ry="18"/>
<text text-anchor="middle" x="208" y="-44.3" font-family="Times New Roman,serif" font-size="14.00">B</text>
</g>
<!-- B&#45;&gt;B -->
<g id="edge4" class="edge">
<title>B&#45;&gt;B</title>
<path fill="none" stroke="black" d="M199.64,-64.29C197.62,-74.39 200.41,-84 208,-84 212.86,-84 215.76,-80.06 216.68,-74.57"/>
<polygon fill="black" stroke="black" points="216.36,-64.29 221.17,-74.15 216.52,-69.29 216.67,-74.29 216.67,-74.29 216.67,-74.29 216.52,-69.29 212.17,-74.42 216.36,-64.29 216.36,-64.29"/>
<text text-anchor="middle" x="208" y="-87.8" font-family="Times New Roman,serif" font-size="14.00">1YR</text>
</g>
<!-- T -->
<g id="node4" class="node">
<title>T</title>
<ellipse fill="none" stroke="black" cx="407" cy="-65" rx="18" ry="18"/>
<text text-anchor="middle" x="407" y="-61.3" font-family="Times New Roman,serif" font-size="14.00">T</text>
</g>
<!-- B&#45;&gt;T -->
<g id="edge5" class="edge">
<title>B&#45;&gt;T</title>
<path fill="none" stroke="black" d="M226.14,-49.48C260.42,-52.44 337.7,-59.11 378.91,-62.66"/>
<polygon fill="black" stroke="black" points="389.04,-63.54 378.69,-67.16 384.06,-63.11 379.08,-62.68 379.08,-62.68 379.08,-62.68 384.06,-63.11 379.47,-58.19 389.04,-63.54 389.04,-63.54"/>
<text text-anchor="middle" x="307" y="-60.8" font-family="Times New Roman,serif" font-size="14.00">$$R</text>
</g>
<!-- C -->
<g id="node5" class="node">
<title>C</title>
<ellipse fill="none" stroke="black" cx="307" cy="-109" rx="18" ry="18"/>
<text text-anchor="middle" x="307" y="-105.3" font-family="Times New Roman,serif" font-size="14.00">C</text>
</g>
<!-- B&#45;&gt;C -->
<g id="edge6" class="edge">
<title>B&#45;&gt;C</title>
<path fill="none" stroke="black" d="M223.73,-57.26C239.42,-67.13 264.46,-82.88 282.8,-94.41"/>
<polygon fill="black" stroke="black" points="291.45,-99.85 280.59,-98.33 287.21,-97.19 282.98,-94.52 282.98,-94.52 282.98,-94.52 287.21,-97.19 285.38,-90.72 291.45,-99.85 291.45,-99.85"/>
<text text-anchor="middle" x="257.5" y="-88.8" font-family="Times New Roman,serif" font-size="14.00">0XR</text>
</g>
<!-- A&#45;&gt;B -->
<g id="edge3" class="edge">
<title>A&#45;&gt;B</title>
<path fill="none" stroke="black" d="M126.45,-23.09C141.23,-27.66 163.18,-34.45 180.43,-39.78"/>
<polygon fill="black" stroke="black" points="190.46,-42.89 179.58,-44.23 185.69,-41.41 180.91,-39.93 180.91,-39.93 180.91,-39.93 185.69,-41.41 182.24,-35.63 190.46,-42.89 190.46,-42.89"/>
<text text-anchor="middle" x="158.5" y="-39.8" font-family="Times New Roman,serif" font-size="14.00">0XR</text>
</g>
<!-- A&#45;&gt;T -->
<g id="edge2" class="edge">
<title>A&#45;&gt;T</title>
<path fill="none" stroke="black" d="M126.99,-17.33C149.68,-16.68 191.05,-16.39 226,-21 289.91,-29.44 304.44,-39.44 367,-55 371.01,-56 375.24,-57.07 379.38,-58.12"/>
<polygon fill="black" stroke="black" points="389.31,-60.66 378.51,-62.54 384.47,-59.42 379.63,-58.18 379.63,-58.18 379.63,-58.18 384.47,-59.42 380.74,-53.82 389.31,-60.66 389.31,-60.66"/>
<text text-anchor="middle" x="257.5" y="-31.8" font-family="Times New Roman,serif" font-size="14.00">11R</text>
</g>
<!-- C&#45;&gt;T -->
<g id="edge7" class="edge">
<title>C&#45;&gt;T</title>
<path fill="none" stroke="black" d="M320.8,-97.16C327.09,-91.87 335.02,-85.95 343,-82 354.27,-76.41 367.61,-72.47 379.11,-69.81"/>
<polygon fill="black" stroke="black" points="389.04,-67.7 380.19,-74.18 384.15,-68.74 379.26,-69.77 379.26,-69.77 379.26,-69.77 384.15,-68.74 378.32,-65.37 389.04,-67.7 389.04,-67.7"/>
<text text-anchor="middle" x="355" y="-85.8" font-family="Times New Roman,serif" font-size="14.00">11R</text>
</g>
<!-- C&#45;&gt;T -->
<g id="edge8" class="edge">
<title>C&#45;&gt;T</title>
<path fill="none" stroke="black" d="M324.96,-107.74C337.14,-106.33 353.69,-103.33 367,-97 373.7,-93.82 380.23,-89.24 385.97,-84.54"/>
<polygon fill="black" stroke="black" points="393.75,-77.71 389.21,-87.69 390,-81.01 386.24,-84.31 386.24,-84.31 386.24,-84.31 390,-81.01 383.27,-80.92 393.75,-77.71 393.75,-77.71"/>
<text text-anchor="middle" x="355" y="-107.8" font-family="Times New Roman,serif" font-size="14.00">00R</text>
</g>
<!-- D -->
<g id="node6" class="node">
<title>D</title>
<ellipse fill="none" stroke="black" cx="407" cy="-157" rx="18" ry="18"/>
<ellipse fill="none" stroke="black" cx="407" cy="-157" rx="22" ry="22"/>
<text text-anchor="middle" x="407" y="-153.3" font-family="Times New Roman,serif" font-size="14.00">D</text>
</g>
<!-- C&#45;&gt;D -->
<g id="edge9" class="edge">
<title>C&#45;&gt;D</title>
<path fill="none" stroke="black" d="M323.75,-116.71C338.26,-123.82 360.15,-134.54 377.7,-143.14"/>
<polygon fill="black" stroke="black" points="386.93,-147.66 375.97,-147.3 382.44,-145.46 377.95,-143.26 377.95,-143.26 377.95,-143.26 382.44,-145.46 379.93,-139.22 386.93,-147.66 386.93,-147.66"/>
<text text-anchor="middle" x="355" y="-140.8" font-family="Times New Roman,serif" font-size="14.00">$$R</text>
</g>
</g>
</svg>
